<svg width="70" height="70" viewBox="0 0 70 70" fill="none" xmlns="http://www.w3.org/2000/svg">
<path fill-rule="evenodd" clip-rule="evenodd" d="M33.1407 0.0244505C30.0313 0.274864 28.3344 0.544664 26.0362 1.15402C15.93 3.83376 7.61961 10.7902 3.22652 20.2476C1.56783 23.8184 0.600413 27.2932 0.126995 31.381C-0.0423863 32.8433 -0.0423209 37.1547 0.127127 38.6159C0.307928 40.1755 0.555793 41.6147 0.883069 43.0061C4.04375 56.4432 14.8337 66.7911 28.3834 69.3799C30.497 69.7837 31.9133 69.932 34.2031 69.9891C42.3259 70.1918 50.2595 67.5563 56.6456 62.5338C61.0608 59.0613 64.4483 54.775 66.8049 49.6791C68.4458 46.1307 69.4016 42.6838 69.8728 38.6159C70.0433 37.1435 70.0422 32.8366 69.8709 31.381C69.5008 28.2357 68.8685 25.5392 67.8706 22.8495C66.2432 18.4628 63.6814 14.3398 60.4934 10.9764C54.72 4.88543 47.1656 1.13105 38.7873 0.189028C37.5861 0.0539525 34.0529 -0.0490229 33.1407 0.0244505ZM38.0874 1.77952C46.9521 2.59595 55.1311 6.89471 60.7933 13.7134C69.9643 24.7577 71.0426 40.4407 63.4663 52.5898C59.5024 58.9463 53.4569 63.8252 46.3637 66.3926C46.0769 66.4964 45.8305 66.5688 45.8161 66.5535C45.8016 66.5382 45.7001 63.4306 45.5904 59.6477C45.4807 55.8648 45.33 50.7467 45.2555 48.2742C45.181 45.8017 45.1371 43.6365 45.158 43.4626C45.1869 43.222 45.1658 43.0962 45.0694 42.9358C44.9998 42.8199 43.8549 41.3817 42.5253 39.7398C41.1957 38.0979 38.9348 35.3005 37.5011 33.5233C36.0673 31.7462 34.8102 30.1895 34.7074 30.0639C34.4837 29.7907 34.2495 29.7671 34.011 29.9937C33.9194 30.0806 32.7599 31.7055 31.4343 33.6045C30.1087 35.5035 28.1128 38.3572 26.9989 39.9461C25.8851 41.5349 24.9229 42.9366 24.8608 43.061C24.7541 43.2744 24.7567 43.6051 24.9077 49.0118C25.3736 65.7008 25.3994 66.8128 25.3212 66.8954C25.2639 66.9561 23.8357 66.489 22.7163 66.0434C15.9406 63.3464 10.4281 58.7674 6.56753 52.6292C2.18513 45.6615 0.561768 37.2092 2.04125 29.063C3.47498 21.1685 7.73587 14.0209 13.9958 9.00935C15.7442 7.60956 17.3214 6.57932 19.3657 5.50152C23.1378 3.51296 27.2362 2.26595 31.514 1.80537C33.3588 1.60673 36.0941 1.59598 38.0874 1.77952ZM41.1749 6.99916C40.5829 7.18158 40.2833 7.37025 39.8935 7.80631C39.4015 8.35659 39.0976 9.0614 39.0002 9.87811C38.7864 11.6703 39.576 12.9205 41.0938 13.1928C41.6497 13.2926 42.2131 13.1963 42.8043 12.9005C43.2027 12.7011 43.2078 12.7005 43.1614 12.8551C43.083 13.1163 42.4334 14.1859 42.136 14.5432C41.9825 14.7278 41.7707 14.9259 41.6652 14.9835C41.495 15.0767 41.4519 15.0765 41.2778 14.9812C41.0189 14.8395 40.9279 14.8458 40.7191 15.0196C40.378 15.3034 40.522 15.6633 41.1075 15.9905C41.6572 16.2977 42.0998 16.1253 42.8723 15.3032C44.1507 13.9427 44.78 12.4812 44.8431 10.7261C44.8803 9.69337 44.8109 9.25829 44.5006 8.57891C43.8772 7.21389 42.5398 6.57862 41.1749 6.99916ZM24.6049 7.15425C24.5023 7.19415 24.4054 7.30991 24.3599 7.44723C24.1229 8.16131 24.0602 8.64697 24.0086 10.1678C23.9791 11.037 23.9342 11.8351 23.9088 11.9412C23.8667 12.1176 23.8876 12.1461 24.1527 12.2733C24.5439 12.4611 24.6008 12.4538 24.9787 12.1688C25.4975 11.7773 25.9391 11.6329 26.7469 11.5904C27.4219 11.5549 27.4763 11.5627 27.8264 11.7439C28.6371 12.1634 28.8694 13.0446 28.4236 14.0085C28.2234 14.4414 27.8513 14.789 27.2931 15.0647C26.9418 15.2381 26.824 15.2592 26.2022 15.2597L25.505 15.2604L24.9569 14.8846C24.1429 14.3265 23.6569 14.2216 23.3074 14.5284C23.138 14.6772 23.1945 15.0476 23.4225 15.2835C23.6642 15.5334 24.3488 15.9236 24.8742 16.1107C25.3667 16.2861 26.8089 16.2957 27.2977 16.1268C28.5667 15.6883 29.4243 14.8704 29.7294 13.8077C29.9228 13.134 29.885 12.324 29.6361 11.8098C29.3322 11.1817 28.7155 10.7138 27.9354 10.5192C27.3931 10.3839 26.2928 10.4626 25.6455 10.683L25.122 10.8613L25.1533 9.82873C25.1706 9.26089 25.2186 8.72922 25.26 8.64725C25.3501 8.46912 25.4969 8.43695 26.6337 8.34605C27.2101 8.29997 27.5962 8.3006 27.7957 8.34802C27.96 8.38707 28.2468 8.43666 28.4329 8.4583L28.7714 8.49756L28.8811 8.20739C29.0318 7.80898 29.0188 7.592 28.8325 7.3949C28.5044 7.04776 28.0136 7.01721 26.1954 7.23096C25.5689 7.30457 25.4655 7.30071 25.2558 7.19541C24.995 7.06455 24.8578 7.05584 24.6049 7.15425ZM33.9375 7.20932C33.348 7.3902 33.097 7.53707 32.6557 7.95951C31.3635 9.19662 30.6729 11.6103 31.1191 13.3301C31.5903 15.1461 32.7272 16.1406 34.3394 16.1469C35.541 16.1516 36.3443 15.673 37.1038 14.5C38.0859 12.9831 38.2618 10.6631 37.5136 9.09245C37.0478 8.11467 36.4156 7.45096 35.718 7.2075C35.2465 7.04292 34.4775 7.04369 33.9375 7.20932ZM42.6689 8.01374C43.0101 8.19651 43.3116 8.62084 43.5385 9.23792C43.6519 9.54607 43.6881 9.79578 43.6924 10.2982L43.698 10.9556L43.3933 11.2465C43.0135 11.6091 42.2037 12.1 41.7984 12.2133C41.2254 12.3735 40.5721 12.0309 40.2626 11.4078C40.0738 11.0279 40.0596 10.0998 40.2342 9.55998C40.3638 9.15939 40.7963 8.4661 41.0572 8.2409C41.519 7.84213 42.1756 7.74963 42.6689 8.01374ZM35.2162 8.15513C36.1223 8.40379 36.6606 9.23771 36.833 10.6598C37.0019 12.0533 36.5456 13.7164 35.7886 14.4663C34.9891 15.2585 33.5521 15.1316 32.7795 14.2007C31.4198 12.5625 32.3839 8.80417 34.329 8.16012C34.6848 8.04233 34.8026 8.04162 35.2162 8.15513ZM35.7635 19.0703C35.3919 19.1399 35.3831 19.1775 35.3365 20.9012C35.3128 21.778 35.2629 23.5639 35.2256 24.87C35.1592 27.1977 35.199 28.2849 35.368 28.7549C35.4338 28.938 35.7485 29.1332 35.9778 29.1332C36.2287 29.1332 36.4274 28.9419 36.4274 28.7002C36.4274 28.5299 36.4499 28.4951 36.5371 28.5305C37.3739 28.8702 38.0175 28.8128 38.5095 28.3547C39.1239 27.7826 39.3492 27.1246 39.3976 25.7611C39.4367 24.6601 39.3401 24.1168 39.0079 23.569C38.3851 22.5423 37.1853 22.2131 36.4691 22.8726C36.3498 22.9824 36.3464 22.9758 36.3838 22.706C36.4934 21.9155 36.6368 19.9758 36.6007 19.7719C36.5527 19.5013 36.2549 19.1127 36.0623 19.0692C35.9892 19.0527 35.8548 19.0532 35.7635 19.0703ZM8.73948 19.4885C8.58311 19.5477 8.47389 19.7307 8.47389 19.9338C8.47389 20.09 8.43132 20.1334 8.20936 20.2038C8.06388 20.2499 7.91375 20.3491 7.87577 20.4242C7.72897 20.7144 8.00664 21.1958 8.32084 21.1958H8.49467L8.45012 22.5129C8.42555 23.2373 8.37688 24.067 8.34189 24.3567C8.22622 25.3146 8.18512 27.2342 8.26832 27.7933C8.37847 28.534 8.4958 28.7623 8.81869 28.8646C9.04756 28.9372 9.1135 28.9305 9.31754 28.8142C9.66633 28.6155 9.73147 28.4088 9.5502 28.0756C9.41461 27.8264 9.40346 27.7154 9.40346 26.6167C9.40346 25.6294 9.42092 25.4123 9.50618 25.3374C9.66009 25.2022 10.9297 25.1181 11.6488 25.1953C11.9891 25.2319 12.3103 25.2444 12.3625 25.2232C12.4859 25.1732 12.5872 24.7768 12.5153 24.6264C12.426 24.4399 12.0374 24.2209 11.652 24.14C11.4089 24.0889 11.0429 24.0864 10.499 24.1322C9.92608 24.1803 9.67635 24.1772 9.61015 24.1208C9.53778 24.0594 9.52616 23.8915 9.55597 23.3392C9.58685 22.7674 9.78053 21.2008 9.82701 21.147C9.83352 21.1394 10.3059 21.0209 10.8769 20.8836C11.6776 20.691 12.0642 20.6334 12.5681 20.6316C13.3393 20.629 13.4803 20.5573 13.4803 20.1678C13.4803 19.8459 13.3075 19.6888 12.8288 19.5755C12.4432 19.4842 11.5695 19.5514 10.3296 19.7675L9.69534 19.8781L9.32823 19.6589C8.95288 19.4348 8.91245 19.4231 8.73948 19.4885ZM58.2193 19.6645C58.162 19.7252 58.1396 20.1975 58.1396 21.3462C58.1396 22.813 58.1016 23.171 57.9701 22.9458C57.8814 22.794 57.2418 22.5318 56.9584 22.5311C56.3969 22.5298 55.8676 22.9974 55.5223 23.7997C55.074 24.8417 54.8482 26.3385 55.0132 27.1746C55.1311 27.7723 55.4496 28.2814 55.873 28.5491C56.5103 28.952 57.2371 28.9301 57.8102 28.491C58.1203 28.2533 58.1396 28.2495 58.1396 28.4254C58.1396 28.6133 58.4965 28.9719 58.7396 29.0284C58.9529 29.078 59.2426 28.9347 59.3111 28.7459C59.3307 28.6919 59.2992 28.4267 59.2411 28.1566C59.1681 27.8168 59.1361 27.3235 59.1373 26.5555C59.1398 25.023 59.3112 21.9107 59.4306 21.2309C59.5985 20.2752 59.5514 20.0328 59.1414 19.7404C58.892 19.5626 58.3572 19.5186 58.2193 19.6645ZM13.7142 20.9094C13.1633 21.4922 13.9295 22.4813 14.6762 22.1513C14.9505 22.0299 15.0473 21.858 15.0473 21.4917C15.0473 20.8233 14.1614 20.4364 13.7142 20.9094ZM22.6957 22.7886C22.2213 23.036 21.7547 23.8769 21.4083 25.1091C21.2173 25.7885 21.195 25.9615 21.1925 26.7801C21.19 27.6033 21.2052 27.7264 21.3474 28.0298C21.5237 28.406 21.9087 28.7268 22.3936 28.9015C22.79 29.0445 23.3213 28.9867 23.7764 28.7511C23.9675 28.6522 24.1473 28.5713 24.1759 28.5713C24.2046 28.5713 24.2137 28.8838 24.1963 29.2658C24.1607 30.0499 24.0536 30.3257 23.6822 30.5905C23.5164 30.7087 23.366 30.7484 23.0882 30.7471C22.4896 30.7444 22.2088 30.6464 21.996 30.3659C21.8462 30.1684 21.7601 30.1166 21.5811 30.1166C21.1104 30.1166 20.9103 30.7061 21.2566 31.0724C21.5827 31.4174 22.8333 31.8726 23.4547 31.8726C24.122 31.8726 24.897 31.364 25.167 30.7488C25.2987 30.4487 25.3048 30.3346 25.2878 28.493C25.2722 26.8193 25.2882 26.4341 25.404 25.6833C25.4777 25.2048 25.5382 24.7628 25.5382 24.7011C25.5382 24.6376 25.4199 24.5324 25.266 24.4589C25.0755 24.3681 24.8681 24.1593 24.5753 23.7634C24.0625 23.0701 23.912 22.9188 23.5972 22.7796C23.2829 22.6407 22.9736 22.6438 22.6957 22.7886ZM61.3599 22.7771C60.6046 23.2059 60.1469 24.4327 60.3889 25.3794C60.5793 26.124 61.373 26.9298 62.1567 27.1742C62.9011 27.4064 63.0854 27.6139 62.8078 27.9075C62.5232 28.2086 61.1926 27.8025 61.0372 27.3672C60.9736 27.1889 60.9333 27.1664 60.678 27.1664C60.0424 27.1664 59.7089 27.6398 60.0817 28.0129C60.459 28.3905 61.7648 28.9225 62.3145 28.9225C63.351 28.9225 64.2187 28.3207 64.3401 27.5176C64.4168 27.0103 64.2568 26.8637 62.9939 26.2842C62.4492 26.0343 62.1473 25.8475 61.9149 25.6164C61.5945 25.2979 61.5923 25.2926 61.5923 24.8484C61.5923 23.9134 62.1339 23.3684 62.6218 23.8125C62.8696 24.038 62.9117 24.4531 62.7258 24.8387C62.6474 25.0012 62.6013 25.1652 62.6234 25.2031C62.6985 25.3316 63.1797 25.5508 63.3868 25.5508C63.7116 25.5508 63.8349 25.4374 63.9574 25.0264C64.2008 24.2097 63.8031 23.4437 62.8775 22.9468C62.3453 22.661 61.6929 22.5881 61.3599 22.7771ZM16.0137 22.8784C15.787 23.0365 15.6172 23.3394 15.6876 23.4599C15.7144 23.5057 15.7289 24.53 15.7199 25.7361C15.7023 28.1034 15.7328 28.3983 16.0206 28.6377C16.2401 28.8203 16.6394 28.8274 16.8438 28.6524C17.0161 28.5048 17.0267 28.2875 16.9011 27.4899C16.7596 26.5918 16.9525 25.5429 17.4063 24.7431C18.1112 23.5006 18.6022 23.5006 18.9514 24.7431C19.0245 25.0032 19.0549 25.5484 19.0687 26.8458L19.0874 28.5972L19.3082 28.7218C19.6018 28.8873 19.9757 28.8882 20.1164 28.7238C20.2114 28.6128 20.2263 28.3938 20.2263 27.1128C20.2263 25.5499 20.1624 25.0059 19.8939 24.2855C19.6968 23.7564 19.5487 23.5627 19.0974 23.2439C18.3515 22.7169 17.7413 22.7176 17.1992 23.2462L16.9064 23.5317V23.2759C16.9064 23.0627 16.8705 22.9969 16.6906 22.8809C16.4199 22.7062 16.2615 22.7056 16.0137 22.8784ZM41.8935 22.8865C40.8774 23.4186 40.139 25.3162 40.3433 26.8701C40.4697 27.8318 40.8462 28.4693 41.5069 28.8406C41.7988 29.0047 41.9149 29.0272 42.4697 29.0275C43.0271 29.0278 43.1447 29.0049 43.4805 28.8304C44.0959 28.5107 44.5502 27.8437 44.7704 26.9371C44.9113 26.3565 44.861 25.1923 44.6704 24.6213C44.4203 23.8723 43.9183 23.2736 43.2414 22.9167C42.8145 22.6916 42.2881 22.6798 41.8935 22.8865ZM27.6961 22.9057C26.735 23.3736 25.97 26.0071 26.3756 27.4519C26.5788 28.1757 26.9788 28.5868 27.6466 28.7578C28.3499 28.9379 29.4858 28.7171 30.0399 28.2924C30.4837 27.9524 30.6681 27.3968 30.3896 27.2391C30.1512 27.1042 29.8657 27.1651 29.2492 27.4825C28.2513 27.9963 27.7234 27.907 27.536 27.193C27.4966 27.0431 27.4643 26.8328 27.4641 26.7256L27.4637 26.5307L27.6752 26.6463C27.9496 26.7964 28.6162 26.7486 29.1289 26.542C30.1692 26.1227 30.6425 25.0587 30.169 24.204C29.675 23.3122 28.3211 22.6013 27.6961 22.9057ZM32.6821 22.9871C32.4471 23.1559 32.4292 23.1583 32.2303 23.0495C31.9398 22.8906 31.4614 22.9538 31.293 23.1732C31.1721 23.3308 31.169 23.4239 31.224 25.2348C31.2557 26.2778 31.2733 27.407 31.2631 27.7439C31.2471 28.2757 31.262 28.3749 31.3756 28.4951C31.6593 28.7953 32.2256 28.7538 32.4645 28.4153C32.587 28.2417 32.588 28.2174 32.4851 27.898C32.3598 27.5089 32.3378 26.2002 32.4449 25.5024C32.535 24.915 32.8083 24.0802 32.9645 23.9149C33.1582 23.71 33.3439 23.8129 33.4663 24.193C33.6394 24.7305 33.9349 24.8489 34.2976 24.5261C34.5842 24.271 34.5786 23.9282 34.2803 23.4688C33.8622 22.8249 33.1902 22.6223 32.6821 22.9871ZM52.7246 22.9941C52.4823 23.1681 52.4614 23.1715 52.2901 23.0643C52.0219 22.8968 51.6093 22.9194 51.3963 23.1132C51.1849 23.3055 51.1932 23.1247 51.2582 26.1122C51.2963 27.86 51.3266 28.3568 51.4026 28.4796C51.5793 28.7649 52.2268 28.7766 52.4646 28.4986C52.5584 28.3889 52.5695 28.3075 52.5234 28.0635C52.4922 27.8985 52.4658 27.2261 52.4646 26.5694C52.4628 25.508 52.4799 25.3167 52.6187 24.8493C52.8304 24.1358 53.0025 23.7948 53.1508 23.7948C53.3133 23.7948 53.4669 23.9905 53.5228 24.2689C53.6136 24.7208 54.0133 24.8348 54.3479 24.5042C54.6405 24.215 54.6285 23.9191 54.3051 23.4559C53.849 22.8024 53.2396 22.6244 52.7246 22.9941ZM13.6246 22.9434C13.5642 23.047 13.4549 24.559 13.4543 25.301C13.4536 26.1968 13.5748 27.9092 13.6592 28.194C13.7539 28.5135 13.9406 28.6576 14.3085 28.695C14.5744 28.7221 14.6584 28.7017 14.7704 28.5832C14.8853 28.4616 14.8972 28.4013 14.8445 28.2068C14.81 28.0794 14.7816 27.2005 14.7814 26.2538C14.7812 24.893 14.8052 24.4094 14.8961 23.9454L15.0111 23.3584L14.8299 23.1935C14.5463 22.9355 13.7284 22.7658 13.6246 22.9434ZM47.3644 22.9543C46.9735 23.0579 46.7564 23.2016 46.4689 23.5472C46.2175 23.8493 46.0551 24.2783 46.0551 24.6407C46.0551 24.8877 46.4665 25.2699 46.7324 25.2699C47.0075 25.2699 47.1175 25.1649 47.1175 24.9024C47.1175 24.6022 47.2837 24.2424 47.4876 24.101C47.6095 24.0165 47.7992 23.9742 48.0631 23.9726C48.4115 23.9707 48.4748 23.9926 48.614 24.1637C48.8133 24.4086 48.9094 24.7735 48.9099 25.2874L48.9103 25.6913H48.2442C47.7476 25.6913 47.4749 25.7281 47.1728 25.8358C46.7329 25.9925 46.1749 26.3452 45.9421 26.6135C45.715 26.8753 45.5735 27.2953 45.6214 27.5656C45.6694 27.8362 45.9635 28.2189 46.2852 28.4292C46.8501 28.7986 47.8498 28.8946 48.5347 28.6453L48.9103 28.5086V28.6765C48.9103 28.7689 48.9803 28.9305 49.0658 29.0356C49.1931 29.1923 49.2765 29.2268 49.527 29.2268C50.1226 29.2268 50.1871 29.0049 50.1965 26.9206C50.2029 25.5055 50.1906 25.3279 50.0509 24.8133C49.7096 23.5563 49.1243 23.0105 48.0213 22.9208C47.7981 22.9026 47.5025 22.9177 47.3644 22.9543ZM37.8849 23.8508C38.129 24.109 38.2205 24.5797 38.2192 25.5718C38.2177 26.7907 38.0238 27.4737 37.616 27.6968C37.214 27.9167 36.81 27.7581 36.5499 27.2781C36.4073 27.015 36.3944 26.9111 36.3964 26.0425C36.3989 24.9989 36.5104 24.518 36.8634 24.0283C37.1684 23.6053 37.5845 23.5329 37.8849 23.8508ZM57.5393 23.8395C57.9105 24.0714 57.9741 24.2939 57.9683 25.3401C57.964 26.1018 57.9357 26.3757 57.8245 26.7319C57.5821 27.5086 57.2555 27.8688 56.7938 27.8688C56.1568 27.8688 55.9392 27.063 56.1806 25.5983C56.4261 24.1096 56.9293 23.4582 57.5393 23.8395ZM23.5679 23.9425C23.7547 24.0326 23.9772 24.4253 24.0412 24.7782C24.0658 24.9134 24.1346 25.1248 24.1941 25.2478C24.2935 25.4536 24.2937 25.5213 24.1969 26.0907C23.9481 27.5524 23.4264 28.2867 22.7973 28.0605C22.4708 27.9431 22.384 27.6575 22.3865 26.7098C22.3888 25.7953 22.5224 25.0153 22.7852 24.3818C22.9888 23.8909 23.207 23.7685 23.5679 23.9425ZM43.0146 23.9381C43.3259 24.0296 43.5009 24.2872 43.639 24.8573C43.7813 25.445 43.7373 26.6974 43.5569 27.1911C43.3962 27.631 43.0662 27.99 42.7681 28.0492C41.965 28.2085 41.5401 27.608 41.5401 26.3136C41.5401 25.0653 41.925 24.1232 42.5108 23.9377C42.7669 23.8565 42.7368 23.8565 43.0146 23.9381ZM28.7575 24.0876C29.1057 24.3772 29.2241 24.9631 29.0114 25.3438C28.8751 25.5879 28.6146 25.7111 28.216 25.7198C27.9666 25.7253 27.8905 25.6938 27.7568 25.5293C27.4432 25.1438 27.6537 24.3088 28.1277 24.0583C28.4303 23.8984 28.5361 23.9033 28.7575 24.0876ZM48.8969 26.854C48.957 27.5038 47.6237 28.0944 47.0933 27.653C46.8847 27.4794 46.875 27.3479 47.0487 27.0464C47.2228 26.7444 47.6458 26.6071 48.3459 26.6256L48.8771 26.6396L48.8969 26.854ZM35.6707 32.8034C38.7796 36.6521 43.3045 42.2518 43.4813 42.469C43.5867 42.5986 43.6613 42.7171 43.647 42.7322C43.6327 42.7474 41.8963 42.0803 39.7885 41.2498C37.6806 40.4193 35.8668 39.7398 35.7578 39.7398C35.6488 39.7398 35.4934 39.7845 35.4125 39.8392C35.3317 39.894 33.891 40.3234 32.2112 40.7936C30.5313 41.2639 28.5948 41.8058 27.9078 41.9981C27.2208 42.1903 26.631 42.3377 26.5973 42.3256C26.5635 42.3135 27.6732 40.6758 29.0632 38.6861C30.4533 36.6965 32.2032 34.1916 32.9519 33.1194C33.7007 32.0473 34.3219 31.1702 34.3324 31.1702C34.3429 31.1702 34.9452 31.9051 35.6707 32.8034ZM39.9777 42.3841C42.2065 43.2589 44.0657 44.0097 44.1092 44.0523C44.196 44.1374 44.553 54.9767 44.4718 55.0645C44.4479 55.0903 42.6506 54.5295 40.4777 53.8182C37.6229 52.8835 36.4362 52.5247 36.1994 52.5244C35.9208 52.5239 34.3474 52.8729 26.976 54.57C26.4704 54.6864 26.0465 54.7709 26.0341 54.7577C25.9758 54.6961 25.7201 43.7339 25.7757 43.6769C25.8093 43.6424 27.6596 43.1028 29.8872 42.4779C32.1149 41.853 34.3409 41.2222 34.8339 41.076C35.3269 40.9299 35.7742 40.8065 35.8279 40.8018C35.8816 40.7972 37.749 41.5092 39.9777 42.3841ZM37.579 43.6429C37.4423 43.7875 37.4167 43.8662 37.4498 44.0413C37.4725 44.1613 37.5067 45.5579 37.5258 47.1449C37.5733 51.0878 37.5931 51.4198 37.7933 51.6317C37.9205 51.7662 38.4324 51.9339 40.3933 52.4831C43.0388 53.2242 43.1245 53.2347 43.2676 52.8367C43.3071 52.7267 43.3328 51.276 43.3328 49.1555C43.3328 45.1812 43.3612 45.3859 42.801 45.3098C42.637 45.2875 41.4989 44.8628 40.272 44.3659C39.0449 43.8691 37.9754 43.4626 37.8952 43.4626C37.815 43.4626 37.6727 43.5438 37.579 43.6429ZM30.266 44.6223C27.0783 45.3878 26.8603 45.4651 26.6751 45.8951C26.6023 46.064 26.7072 48.7413 26.9177 52.084C26.9764 53.0166 27.0704 53.2658 27.4117 53.3945C27.5342 53.4408 28.4665 53.2875 30.9191 52.8183C34.7294 52.0892 34.5405 52.159 34.5151 51.4883C34.5067 51.2659 34.4257 49.5571 34.3352 47.6909C34.1771 44.4287 34.1404 44.0764 33.9442 43.9378C33.7721 43.8163 33.1066 43.9401 30.266 44.6223ZM40.3937 45.4881C41.3518 45.8774 42.1958 46.2301 42.2695 46.2718C42.4001 46.3457 42.4033 46.4119 42.4023 49.0669C42.4017 50.5626 42.3746 51.8309 42.342 51.8853C42.293 51.9673 41.9651 51.8947 40.4341 51.4631L38.5854 50.942L38.5426 50.2051C38.5106 49.6529 38.4649 45.4988 38.4833 44.8073C38.4847 44.7549 38.5232 44.7273 38.5688 44.7461C38.6145 44.7648 39.4357 45.0987 40.3937 45.4881ZM33.2466 45.0255C33.2848 45.1331 33.5484 51.2369 33.5164 51.2714C33.4477 51.3454 27.9665 52.3776 27.9211 52.325C27.8804 52.2779 27.593 47.2325 27.5953 46.606C27.596 46.4225 27.6123 46.2723 27.6317 46.2723C27.6725 46.2723 31.2277 45.4273 32.2112 45.1839C32.7975 45.0387 33.2279 44.9729 33.2466 45.0255ZM37.4941 53.8869C38.1308 54.0958 39.8768 54.6665 41.3741 55.1552C42.8714 55.6439 44.1908 56.0751 44.3062 56.1135L44.5161 56.1832L44.5537 56.8296C44.5743 57.1851 44.6232 58.6929 44.6623 60.1803C44.7013 61.6677 44.7623 63.7697 44.7978 64.8514C44.8535 66.5494 44.849 66.8284 44.7654 66.8932C44.6006 67.0207 43.6708 67.2393 43.6058 67.1659C43.5733 67.1292 43.5327 65.1851 43.5155 62.8458C43.4931 59.8013 43.4623 58.5489 43.4069 58.4395C43.356 58.3387 43.2001 58.2479 42.9494 58.1728C42.7404 58.1102 41.5927 57.746 40.3992 57.3636C39.2057 56.9811 38.1262 56.6682 38.0004 56.6682C37.8746 56.6682 37.7359 56.7138 37.6921 56.7696C37.6317 56.8465 37.6143 58.0736 37.6199 61.8476C37.624 64.5847 37.6425 67.1283 37.661 67.5C37.6857 67.9973 37.6727 68.1903 37.6116 68.2302C37.48 68.3162 35.0846 68.411 35.0109 68.333C34.9742 68.2942 34.8804 65.9398 34.7893 62.7655C34.6891 59.2782 34.6042 57.1933 34.5572 57.0688C34.4744 56.8489 34.1966 56.6682 33.9415 56.6682C33.8488 56.6682 32.2862 56.9682 30.469 57.3348C28.097 57.8134 27.1182 58.0383 26.999 58.1322C26.7722 58.3109 26.7718 58.3521 26.9556 63.2007C27.0413 65.4607 27.0906 67.3352 27.065 67.3662C26.9894 67.458 26.409 67.2714 26.3742 67.144C26.3075 66.8999 26.0482 55.8899 26.1079 55.8333C26.1415 55.8014 28.0663 55.3391 30.3852 54.8061C32.7042 54.2731 34.9003 53.7659 35.2655 53.6791C35.6307 53.5922 36.021 53.5179 36.1329 53.5142C36.2448 53.5104 36.8574 53.6781 37.4941 53.8869ZM33.7061 58.0203C33.7066 58.1845 33.7659 60.2628 33.8379 62.6388C33.91 65.0147 33.9693 67.2669 33.9698 67.6435L33.9707 68.3284L33.4561 68.3281C32.0944 68.3273 28.1559 67.7894 28.0877 67.5948C28.0242 67.4139 27.7526 59.0157 27.8082 58.951C27.8606 58.8901 33.2775 57.7438 33.5889 57.7278C33.6821 57.723 33.7053 57.7809 33.7061 58.0203ZM40.6105 58.4787L42.5029 59.0933L42.5436 61.0592C42.5661 62.1405 42.5885 64.0265 42.5934 65.2506C42.6018 67.3134 42.594 67.4788 42.4863 67.5144C42.0551 67.6569 40.8938 67.8621 38.8676 68.1537C38.7307 68.1734 38.6184 68.1655 38.6182 68.1361C38.6179 68.1066 38.5981 65.783 38.5742 62.9724C38.5368 58.5959 38.5441 57.8624 38.6244 57.8632C38.6759 57.8637 39.5697 58.1407 40.6105 58.4787ZM30.2723 61.2902C29.589 61.5485 29.0823 62.0916 28.8178 62.8495C28.6697 63.2738 28.6698 64.2528 28.8179 64.6728C29.2071 65.7763 30.0621 66.4203 31.0391 66.3458C31.8363 66.285 32.5187 65.7595 32.8884 64.9216C33.0531 64.5483 33.0743 64.42 33.0743 63.7978C33.0743 63.1578 33.056 63.0545 32.8683 62.6355C32.59 62.014 32.3129 61.6998 31.8141 61.4401C31.2742 61.1589 30.7536 61.1083 30.2723 61.2902ZM39.9133 61.6445C38.5891 62.3137 38.3679 65.0795 39.5299 66.4401C40.7743 67.8972 42.4038 66.3134 42.1261 63.9167C41.9346 62.2642 40.8635 61.1643 39.9133 61.6445ZM31.2818 61.968C32.4166 62.3293 32.8194 64.0803 32.0006 65.0923C31.2465 66.0242 30.0186 65.7666 29.5132 64.5704C29.0972 63.5857 29.5788 62.262 30.4587 61.9717C30.8373 61.8469 30.9003 61.8465 31.2818 61.968ZM40.9294 62.5967C41.2857 63.0056 41.4737 63.6369 41.4737 64.4246C41.4737 65.1906 41.3297 65.6876 41.0098 66.026C40.6891 66.3653 40.4438 66.379 40.1175 66.0759C39.3248 65.3396 39.2069 63.321 39.9104 62.5319C40.0886 62.3319 40.1765 62.2876 40.3941 62.2876C40.6233 62.2876 40.6972 62.3303 40.9294 62.5967ZM30.7489 63.348C30.3206 63.7831 30.1729 64.0531 30.2454 64.2685C30.3044 64.4439 30.9734 65.027 31.1156 65.027C31.5027 65.027 31.5706 64.6862 31.2484 64.3597C31.1388 64.2486 31.0492 64.1275 31.0492 64.0905C31.0492 64.0534 31.1837 63.871 31.348 63.6852C31.6698 63.3212 31.7051 63.2022 31.5425 63.0301C31.3599 62.8371 31.1815 62.9086 30.7489 63.348ZM40.4238 63.7647C40.2115 64.0058 39.9315 64.6553 39.9759 64.8037C40.0438 65.0299 40.7177 65.6592 40.892 65.6592C41.265 65.6592 41.3024 65.3486 40.9757 64.966C40.8479 64.8163 40.7433 64.6591 40.7433 64.6168C40.7433 64.5744 40.8063 64.4118 40.8832 64.2557C41.0145 63.9892 41.0165 63.9609 40.9149 63.7969C40.7837 63.5851 40.5929 63.5726 40.4238 63.7647Z" fill="#F8F8F8"/>
</svg>
